<svg id="svg" xmlns="http://www.w3.org/2000/svg" viewbox="90.80999755859375,122,471,108" style="height:108"><path d="M 100.81,170 L 100.81,171 L 106.81,186 L 108.81,194 L 115.81,208 L 120.81,216 L 121.81,217 L 124.81,220 L 125.81,220 L 127.81,217 L 130.81,202 L 133.81,184 L 134.81,176 L 134.81,163 L 135.81,159 L 136.81,153 L 136.81,150 L 138.81,145 L 140.81,142 L 141.81,142 L 142.81,142 L 144.81,146 L 147.81,155 L 151.81,178 L 152.81,186 L 157.81,200 L 157.81,203 L 159.81,206 L 162.81,204 L 167.81,200 L 178.81,184 L 188.81,163 L 190.81,154 L 193.81,141 L 194.81,137 L 194.81,134 L 194.81,132 L 194.81,133 L 195.81,136 L 200.81,152 L 208.81,172 L 212.81,181 L 218.81,196 L 224.81,204 L 226.81,206" fill="none" stroke="#6190e8" stroke-width="2"></path><path d="M 247.81,192 L 248.81,191 L 252.81,191 L 257.81,190 L 267.81,186 L 278.81,177 L 288.81,164 L 290.81,159 L 293.81,150 L 292.81,143 L 289.81,139 L 282.81,134 L 279.81,133 L 273.81,132 L 268.81,136 L 264.81,142 L 259.81,160 L 257.81,179 L 259.81,186 L 267.81,196 L 274.81,199 L 296.81,203 L 318.81,202 L 326.81,200 L 340.81,194" fill="none" stroke="#6190e8" stroke-width="2"></path><path d="M 386.81,179 L 386.81,178 L 385.81,177 L 384.81,175 L 377.81,168 L 371.81,165 L 361.81,162 L 355.81,161 L 342.81,161 L 333.81,166 L 329.81,169 L 327.81,176 L 329.81,187 L 334.81,192 L 349.81,204 L 357.81,207 L 374.81,211 L 389.81,207 L 396.81,204 L 405.81,193 L 408.81,187 L 409.81,174 L 405.81,162 L 398.81,157 L 376.81,153 L 355.81,151" fill="none" stroke="#6190e8" stroke-width="2"></path><path d="M 428.81,153 L 429.81,158 L 431.81,167 L 435.81,179 L 445.81,197 L 450.81,204 L 455.81,208 L 463.81,210 L 468.81,209 L 479.81,203 L 487.81,192 L 490.81,185 L 493.81,171 L 493.81,163 L 492.81,155 L 488.81,150 L 486.81,149 L 481.81,149 L 479.81,153 L 475.81,169 L 479.81,191 L 484.81,201 L 495.81,214 L 511.81,218 L 520.81,217 L 536.81,206 L 542.81,199 L 550.81,184 L 551.81,177 L 546.81,163 L 535.81,154 L 529.81,151" fill="none" stroke="#6190e8" stroke-width="2"></path>  </svg>  