<svg id="svg" xmlns="http://www.w3.org/2000/svg" viewbox="97.48999786376953,124,412,82" style="height:82"><path d="M 107.49,174 L 109.49,166 L 111.49,159 L 114.49,144 L 119.49,135 L 120.49,135 L 120.49,134 L 121.49,134 L 122.49,135 L 126.49,141 L 128.49,146 L 131.49,153 L 132.49,156 L 133.49,162 L 140.49,172 L 143.49,175 L 145.49,176 L 146.49,176 L 148.49,173 L 151.49,166 L 152.49,161 L 153.49,156 L 156.49,152 L 158.49,150 L 166.49,144 L 169.49,142 L 172.49,140 L 173.49,139 L 174.49,140 L 174.49,141 L 176.49,144 L 178.49,150 L 180.49,158 L 185.49,168 L 190.49,175 L 199.49,183 L 204.49,185 L 205.49,186 L 207.49,186" fill="none" stroke="#6190e8" stroke-width="2"></path><path d="M 234.49,174 L 236.49,173 L 238.49,172 L 249.49,167 L 259.49,162 L 267.49,157 L 275.49,150 L 279.49,146 L 281.49,144 L 281.49,143 L 281.49,140 L 281.49,139 L 281.49,138 L 279.49,137 L 276.49,137 L 273.49,137 L 268.49,139 L 264.49,141 L 261.49,143 L 257.49,147 L 254.49,150 L 251.49,153 L 246.49,162 L 246.49,166 L 245.49,169 L 245.49,174 L 245.49,180 L 246.49,182 L 247.49,184 L 250.49,186 L 255.49,189 L 260.49,190 L 260.49,190 L 263.49,189 L 266.49,188 L 270.49,187 L 276.49,183 L 283.49,179 L 294.49,173 L 298.49,171 L 304.49,168 L 308.49,166 L 309.49,166 L 310.49,166" fill="none" stroke="#6190e8" stroke-width="2"></path><path d="M 335.49,150 L 334.49,151 L 333.49,154 L 332.49,156 L 330.49,161 L 331.49,163 L 333.49,168 L 334.49,171 L 335.49,173 L 338.49,176 L 341.49,178 L 344.49,178 L 347.49,178 L 349.49,178 L 351.49,178 L 356.49,177 L 357.49,176 L 361.49,174 L 363.49,170 L 365.49,166 L 366.49,164 L 367.49,162 L 367.49,156 L 366.49,155 L 365.49,153 L 362.49,149 L 357.49,149 L 354.49,148 L 350.49,147 L 349.49,147 L 346.49,147 L 344.49,148 L 343.49,148 L 340.49,150 L 339.49,152" fill="none" stroke="#6190e8" stroke-width="2"></path><path d="M 392.49,160 L 391.49,163 L 392.49,168 L 395.49,175 L 396.49,175 L 397.49,177 L 398.49,177 L 398.49,178 L 400.49,180 L 412.49,184 L 421.49,187 L 436.49,190 L 445.49,190 L 450.49,191 L 455.49,190 L 456.49,189 L 459.49,184 L 461.49,182 L 461.49,179 L 461.49,175 L 461.49,171 L 460.49,169 L 460.49,168 L 459.49,167 L 458.49,167 L 457.49,166 L 455.49,167 L 453.49,169 L 452.49,171 L 450.49,175 L 450.49,178 L 451.49,181 L 452.49,182 L 455.49,186 L 456.49,188 L 457.49,191 L 457.49,192 L 457.49,192 L 463.49,196 L 468.49,196 L 478.49,195 L 484.49,192 L 488.49,190 L 492.49,189 L 494.49,187 L 496.49,186 L 496.49,185 L 498.49,182 L 499.49,177 L 499.49,176 L 498.49,175 L 498.49,175 L 497.49,174 L 494.49,172 L 493.49,171 L 492.49,170 L 490.49,169 L 490.49,169 L 489.49,169" fill="none" stroke="#6190e8" stroke-width="2"></path></svg>  