<svg id="svg" xmlns="http://www.w3.org/2000/svg" viewbox="101.48999786376953,46,462,297" style="height:297"><line x1="156.49" y1="319" x2="153.49" y2="56" fill="none" stroke="#6190e8" stroke-width="2" d="M 156.49 319 L 153.49 56"></line><line x1="522.49" y1="328" x2="520.49" y2="74" fill="none" stroke="#6190e8" stroke-width="2" d="M 522.49 328 L 520.49 74"></line><path d="M 132.49,78 L 133.49,78 L 134.49,78 L 139.49,82 L 147.49,86 L 148.49,87 L 154.49,91 L 157.49,92 L 160.49,95 L 165.49,99 L 166.49,99 L 168.49,100 L 169.49,101 L 170.49,103 L 170.49,104 L 171.49,106 L 171.49,107 L 171.49,109 L 171.49,112 L 171.49,113 L 170.49,113 L 169.49,115 L 166.49,118 L 164.49,119 L 162.49,121 L 159.49,122 L 157.49,123 L 155.49,125 L 151.49,128 L 147.49,130 L 141.49,134 L 138.49,134 L 136.49,134 L 136.49,133 L 135.49,131 L 134.49,129 L 134.49,127 L 135.49,125 L 136.49,123 L 139.49,122 L 141.49,121 L 144.49,120 L 145.49,120 L 149.49,120 L 151.49,121 L 153.49,121 L 154.49,122 L 156.49,122 L 158.49,122 L 159.49,124 L 161.49,126 L 164.49,129 L 165.49,132 L 166.49,134 L 167.49,135 L 168.49,137 L 168.49,138 L 169.49,141 L 169.49,143 L 170.49,146 L 171.49,153 L 171.49,158 L 172.49,162 L 172.49,165 L 172.49,165 L 171.49,167 L 171.49,169 L 171.49,170 L 170.49,170 L 170.49,171 L 166.49,172 L 161.49,173 L 158.49,173 L 155.49,173 L 148.49,172 L 142.49,172 L 138.49,172 L 137.49,171 L 137.49,170 L 136.49,170 L 135.49,168 L 135.49,167 L 134.49,166 L 135.49,164 L 136.49,163 L 137.49,163 L 138.49,162 L 142.49,161 L 145.49,161 L 149.49,162 L 151.49,162 L 154.49,165 L 163.49,173 L 167.49,177 L 170.49,181 L 173.49,187 L 174.49,188 L 175.49,190 L 176.49,192 L 176.49,193 L 177.49,196 L 177.49,198 L 177.49,202 L 176.49,214 L 175.49,220 L 175.49,224 L 174.49,227 L 174.49,228 L 173.49,229 L 170.49,230 L 169.49,230 L 163.49,231 L 161.49,230 L 157.49,229 L 155.49,227 L 151.49,221 L 149.49,217 L 148.49,216 L 148.49,215 L 148.49,214 L 148.49,213 L 148.49,211 L 149.49,211 L 149.49,210 L 152.49,209 L 153.49,208 L 157.49,208 L 159.49,208 L 161.49,209 L 163.49,211 L 165.49,215 L 167.49,218 L 168.49,220 L 170.49,225 L 172.49,230 L 175.49,238 L 177.49,243 L 178.49,252 L 179.49,259 L 178.49,263 L 178.49,268 L 178.49,269 L 177.49,271 L 177.49,272 L 175.49,274 L 168.49,275 L 152.49,285 L 139.49,292 L 134.49,292 L 117.49,301 L 113.49,302 L 111.49,299 L 112.49,296 L 112.49,295 L 113.49,292 L 114.49,290 L 115.49,289 L 116.49,289 L 117.49,288 L 119.49,287 L 120.49,286 L 124.49,284 L 134.49,281 L 140.49,280 L 143.49,280 L 146.49,280 L 146.49,280 L 148.49,282 L 149.49,286 L 151.49,289 L 156.49,297 L 159.49,302 L 162.49,307 L 165.49,317 L 167.49,320 L 168.49,323 L 170.49,325 L 170.49,326 L 171.49,327 L 172.49,328 L 177.49,331 L 180.49,333" fill="none" stroke="#6190e8" stroke-width="2"></path><path d="M 534.49,99 L 533.49,100 L 530.49,100 L 528.49,103 L 524.49,106 L 491.49,143 L 488.49,144 L 484.49,151 L 481.49,155 L 481.49,157 L 483.49,159 L 486.49,160 L 488.49,161 L 490.49,161 L 492.49,162 L 494.49,162 L 502.49,166 L 510.49,168 L 516.49,170 L 524.49,170 L 525.49,170 L 526.49,170 L 529.49,169 L 531.49,169 L 531.49,167 L 532.49,167 L 533.49,166 L 534.49,165 L 534.49,163 L 534.49,162 L 534.49,161 L 533.49,160 L 530.49,158 L 527.49,157 L 526.49,157 L 524.49,157 L 522.49,159 L 518.49,161 L 516.49,165 L 514.49,168 L 512.49,174 L 512.49,178 L 512.49,181 L 513.49,186 L 514.49,189 L 515.49,191 L 516.49,194 L 516.49,195 L 517.49,199 L 518.49,204 L 519.49,213 L 521.49,220 L 521.49,222 L 522.49,223 L 523.49,224 L 523.49,224 L 525.49,224 L 526.49,224 L 526.49,223 L 528.49,221 L 529.49,220 L 531.49,218 L 533.49,215 L 534.49,213 L 536.49,210 L 536.49,210 L 536.49,209 L 536.49,207 L 536.49,206 L 533.49,205 L 530.49,204 L 527.49,204 L 526.49,204 L 523.49,205 L 522.49,207 L 519.49,210 L 517.49,212 L 516.49,216 L 514.49,221 L 514.49,222 L 514.49,226 L 514.49,229 L 515.49,231 L 515.49,234 L 515.49,244 L 515.49,250 L 515.49,261 L 515.49,267 L 516.49,270 L 516.49,276 L 517.49,277 L 518.49,278 L 521.49,280 L 522.49,282 L 527.49,284 L 529.49,284 L 534.49,286 L 541.49,289 L 545.49,290 L 545.49,290 L 546.49,290 L 548.49,290 L 550.49,287 L 551.49,284 L 552.49,282 L 553.49,277 L 552.49,275 L 551.49,272 L 548.49,269 L 544.49,267 L 538.49,265 L 534.49,264 L 533.49,264 L 529.49,266 L 528.49,267 L 526.49,267 L 524.49,270 L 522.49,272 L 518.49,279 L 517.49,283 L 517.49,286 L 516.49,291 L 517.49,295 L 517.49,298 L 519.49,300 L 519.49,301 L 522.49,305 L 522.49,306 L 523.49,308 L 524.49,310 L 528.49,312 L 530.49,312 L 533.49,312 L 536.49,311 L 536.49,310 L 537.49,308 L 537.49,305" fill="none" stroke="#6190e8" stroke-width="2"></path>  </svg>  