<svg id="svg" xmlns="http://www.w3.org/2000/svg" viewbox="126.71000671386719,15.021112442016602,239.4499969482422,226.24667358398438" style="height:226.24667358398438"><path d="M 169.36,55.28 L 170.05,55.98 L 171.44,59.45 L 172.14,62.92 L 172.83,65.7 L 173.52,69.87 L 174.22,75.42 L 174.91,80.98 L 174.91,91.4 L 174.22,104.59 L 173.52,110.15 L 172.83,122.65 L 172.83,131.67 L 172.83,136.53 L 173.52,143.48 L 174.22,146.95 L 174.91,155.28 L 174.91,161.53 L 174.91,165.01 L 175.61,172.65 L 175.61,175.42 L 175.61,179.59 L 175.61,183.06 L 174.91,184.45 L 174.91,187.92 L 174.22,189.31 L 174.22,191.4 L 174.22,192.78 L 174.22,193.48 L 174.22,194.17 L 174.91,194.87 L 175.61,195.56 L 177,195.56 L 183.94,196.26 L 197.83,194.87 L 206.16,194.17 L 224.22,191.4 L 241.58,190.7 L 249.91,190.7 L 265.19,191.4 L 272.83,192.09 L 288.8,192.09 L 304.08,192.09 L 308.94,192.09 L 320.05,193.48 L 323.52,194.17 L 331.16,194.87 L 338.11,196.26 L 340.89,196.26 L 345.05,196.26 L 346.44,196.26 L 348.52,196.26 L 349.22,196.26 L 349.91,196.26 L 350.61,196.26 L 351.3,196.26 L 351.3,195.56 L 351.3,194.87 L 350.61,194.17" fill="none" stroke="#6190e8" stroke-width="2"></path><path d="M 192.97,187.92 L 193.66,187.92 L 193.66,187.23 L 194.36,186.53 L 195.75,185.15 L 197.14,182.37 L 208.25,171.95 L 214.5,167.09" fill="none" stroke="#6190e8" stroke-width="2"></path><path d="M 231.86,150.42 L 233.25,150.42 L 236.72,147.65 L 249.91,137.92" fill="none" stroke="#6190e8" stroke-width="2"></path><path d="M 265.19,128.2 L 265.89,128.2 L 266.58,127.51 L 269.36,125.42" fill="none" stroke="#6190e8" stroke-width="2"></path><path d="M 305.47,99.73 L 306.16,99.03 L 306.86,97.65" fill="none" stroke="#6190e8" stroke-width="2"></path><path d="M 327,78.2 L 327.69,78.2" fill="none" stroke="#6190e8" stroke-width="2"></path><text font-family="inherit" font-size="14" fill="#6190e8" x="276.99" y="43.77">V_s</text><text font-family="inherit" font-size="14" fill="#6190e8" x="303.37" y="228.49">$V_c$</text><path d="M 291.58,108.76 L 292.27,108.76 L 292.97,108.76 L 293.66,108.06 L 295.75,106.67 L 297.14,105.28 L 302.69,101.12" fill="none" stroke="#6190e8" stroke-width="2"></path><path d="M 329.77,76.12 L 329.77,75.42 L 330.47,74.73 L 330.47,74.03 L 331.16,73.34 L 332.55,71.95 L 333.94,70.56 L 334.64,69.87 L 336.02,69.17 L 338.11,68.48" fill="none" stroke="#6190e8" stroke-width="2"></path><path d="M 322.14,57.37 L 322.83,57.37 L 324.22,57.37 L 325.61,57.37 L 329.08,57.37 L 334.64,56.67 L 337.41,56.67 L 342.27,56.67 L 343.66,56.67 L 346.44,57.37 L 347.14,57.37 L 349.91,58.06 L 352.69,58.76 L 354.08,58.76 L 355.47,60.15 L 356.16,60.84 L 356.16,63.62 L 355.47,67.78 L 354.77,70.56 L 352.69,78.2 L 351.3,80.98 L 349.91,84.45 L 349.22,87.92 L 349.22,88.62 L 349.22,90.01 L 349.22,90.7" fill="none" stroke="#6190e8" stroke-width="2"></path><text font-family="inherit" font-size="14" fill="#6190e8" x="337.4" y="219.47"></text><text font-family="inherit" font-size="14" fill="#6190e8" x="320.74" y="223.63"></text><text font-family="inherit" font-size="14" fill="#6190e8" x="136.71" y="38.91">V_r</text>  </svg>  